<?xml version="1.0" encoding="UTF-8" standalone="no"?><!DOCTYPE svg PUBLIC "-//W3C//DTD SVG 1.1//EN" "http://www.w3.org/Graphics/SVG/1.1/DTD/svg11.dtd"><svg width="100%" height="100%" viewBox="0 0 165 165" version="1.1" xmlns="http://www.w3.org/2000/svg" xmlns:xlink="http://www.w3.org/1999/xlink" xml:space="preserve" xmlns:serif="http://www.serif.com/" style="fill-rule:evenodd;clip-rule:evenodd;stroke-linecap:round;stroke-miterlimit:1.5;"><rect id="Artboard1" x="0" y="0" width="165" height="165" style="fill:#808080;fill-opacity:0;"/><clipPath id="_clip1"><rect x="0" y="0" width="165" height="165"/></clipPath><g clip-path="url(#_clip1)"><g><path d="M85.85,127.474c-4.966,42.151 -56.945,39.923 -56.945,-6.688c-0,-48.952 12.844,-88.695 28.664,-88.695c12.386,0 22.948,24.36 26.948,58.431l-26.544,19.262l27.877,17.69Z" style="fill:#f2f2f2;"/><path d="M7.5,141.904c0,-74.18 19.463,-134.404 43.437,-134.404c5.852,0 11.154,2.758 15.811,7.334c9.381,9.219 16.14,25.819 19.486,42.122" style="fill:none;stroke:#f2f2f2;stroke-width:8.33px;"/><path d="M80.673,85.821c7.093,-44.419 24.447,-78.321 41.53,-78.321c17.641,0 30.291,25.061 35.297,49.456" style="fill:none;stroke:#f2f2f2;stroke-width:8.33px;"/><path d="M156.455,127.474c-4.966,42.151 -56.945,39.923 -56.945,-6.688c-0,-48.952 12.844,-88.695 28.664,-88.695c12.386,0 22.947,24.36 26.948,58.431l-26.544,19.262l27.877,17.69Z" style="fill:#f2f2f2;"/></g></g></svg>